<svg version="1.1" id="Ñëîé_1" xmlns="http://www.w3.org/2000/svg" xmlns:xlink="http://www.w3.org/1999/xlink" x="0" y="0" viewBox="0 0 700 400" style="enable-background:new 0 0 700 400" xml:space="preserve">
    <style>
        .st0{fill:#f0e6ff}.st1{fill:#6f35a5}.st3{fill:#9169bc}.st4{fill:#242993}.st7{fill:#bcd5ff}.st8{fill:#e9ffff}.st9{opacity:.11}.st10{opacity:.6;fill:#242993}.st13{fill:#4553c7}.st16{fill:#42ffff}.st17{fill:#fce8ee}.st18{fill:azure}.st19{fill:#2b282b}.st20{fill:#c4e3ff}.st21{fill:#e2c8cf}.st23{fill:#3a3a3a}
    </style>
    <path class="st0" d="m267.3 395.83-90.48-52.24c-1.7-.98-1.49-2.7.48-3.84l220.37-127.23 63.49 74.95-187.21 108.09c-1.97 1.13-4.95 1.26-6.65.27z"/>
    <path class="st1" d="m365 21.63 10.59-6.1v.02c.43-.22.97-.2 1.57.14l91.17 52.64c1.37.79 2.48 2.92 2.48 4.74v207.39c0 1.01-.35 1.7-.88 2l.02.01-10.58 6.09-.23-11.53-81.98-47.33c-1.37-.79-2.48-2.92-2.48-4.74V27.07c-.21.67-.38 1.16-.4 1.18-.09.05-9.28-6.62-9.28-6.62z"/>
    <linearGradient id="SVGID_1_" gradientUnits="userSpaceOnUse" x1="159.433" y1="88.216" x2="159.433" y2="68.647" gradientTransform="matrix(-1 0 0 1 614.323 0)">
        <stop offset="0" style="stop-color:#c0d6ff"/>
        <stop offset=".298" style="stop-color:#c5dbff"/>
        <stop offset=".649" style="stop-color:#d3e9ff"/>
        <stop offset="1" style="stop-color:#e9ffff"/>
    </linearGradient>
    <path d="M470.75 72.31 443.2 88.22l-4.16-2.4 29.73-17.17c.98.8 1.76 2.25 1.98 3.66z" style="fill:url(#SVGID_1_)"/>
    <path class="st3" d="m366.64 235.76 91.17 52.64c1.37.79 2.48-.05 2.48-1.88V79.13c0-1.83-1.11-3.95-2.48-4.74l-91.17-52.64c-1.37-.79-2.48.05-2.48 1.88v207.39c-.01 1.82 1.1 3.95 2.48 4.74z"/>
    <path class="st4" d="m364.15 219.66 96.14 55.51V90.48l-96.14-55.5z"/>
    <path class="st1" d="m364.15 219.66 96.14 55.51V90.48l-96.14-55.5z"/>
    <path class="st0" d="m364.15 213.19 96.14 55.5V96.4l-96.14-55.51z" style="opacity:.51"/>
    <path d="m404.73 53.09 17.39 10.08c.51.29.94.38 1.13-.1.06-.16.1-.36.1-.59 0-.9-.55-1.96-1.23-2.35l-17.57-10.15c-.05-.03-.1-.09-.16-.08-.55.15-.65.26-.65 1.1l.08.23c0 .91.23 1.46.91 1.86z" style="fill:#5778ff"/>
    <path class="st7" d="M404.39 49.91c-.06.16-.1.36-.1.58 0 .9.55 1.96 1.23 2.35l17.57 10.15c.05.03.11.05.16.07-.19.48-.62.64-1.13.35l-17.57-10.15c-.68-.39-1.23-1.44-1.23-2.35 0-.83.46-1.24 1.07-1z"/>
    <path class="st8" d="m465.9 96.35.2-.11c.32-.19.61-.2.84-.07v-.01l.75.43-.36.03c.07.17.11.39.11.63v12.01c0 .98-.6 2.12-1.33 2.54l-.2.11c-.09.05-.18.09-.27.12l.19.4-.8-.46h.01c-.29-.16-.47-.53-.47-1.07V98.89c0-.98.6-2.12 1.33-2.54z"/>
    <path class="st7" d="m466.66 112.34.2-.11c.74-.42 1.33-1.56 1.33-2.54V97.67c0-.98-.6-1.43-1.33-1.01l-.2.11c-.74.42-1.33 1.56-1.33 2.54v12.01c0 .99.59 1.45 1.33 1.02z"/>
    <path class="st8" d="m465.9 114.67.2-.11c.32-.19.61-.2.84-.07v-.01l.75.43-.36.03c.07.17.11.39.11.63v12.01c0 .98-.6 2.12-1.33 2.54l-.2.11c-.09.05-.18.09-.27.12l.19.4-.8-.46h.01c-.29-.16-.47-.53-.47-1.07v-12.01c0-.97.6-2.11 1.33-2.54z"/>
    <path class="st7" d="m466.66 130.67.2-.11c.74-.42 1.33-1.56 1.33-2.54V116c0-.98-.6-1.43-1.33-1.01l-.2.11c-.74.42-1.33 1.56-1.33 2.54v12.01c0 .99.59 1.44 1.33 1.02z"/>
    <g class="st9">
        <defs>
            <path id="SVGID_00000111882630277047098890000005605379564489129367_" class="st9" d="m364.15 213.19 96.14 55.5V96.4l-96.14-55.51z"/>
        </defs>
        <clipPath id="SVGID_00000097478425515965710960000011324283369822113676_">
            <use xlink:href="#SVGID_00000111882630277047098890000005605379564489129367_" style="overflow:visible"/>
        </clipPath>
    </g>
    <path class="st10" d="M364.15 231.02v-116.9c3.55-9.85 10.63-19.26 18.78-23.97l64.13 37.02c-11.71 6.76-21.21 23.21-21.21 36.74v102.36c0 1.15-.1 2.34-.26 3.53l-58.96-34.04c-1.37-.79-2.48-2.92-2.48-4.74z"/>
    <linearGradient id="SVGID_00000089567541686163362340000010713160024238315399_" gradientUnits="userSpaceOnUse" x1="176.584" y1="150.771" x2="219.832" y2="72.897" gradientTransform="matrix(-1 0 0 1 614.323 0)">
        <stop offset="0" style="stop-color:#5778ff"/>
        <stop offset=".04" style="stop-color:#5c7dff"/>
        <stop offset=".087" style="stop-color:#6a8aff"/>
        <stop offset=".137" style="stop-color:#82a0ff"/>
        <stop offset=".19" style="stop-color:#a3beff"/>
        <stop offset=".224" style="stop-color:#bcd5ff"/>
    </linearGradient>
    <path style="fill:url(#SVGID_00000089567541686163362340000010713160024238315399_)" d="m364.84 77.22 6.52-3.76v.01c.09-.06.2-.06.33.01l81.74 47.2c.27.15.48.57.48.92v15.43c0 .17-.05.29-.13.36h-.01c-.01.01-.01.01-.02.01l-6.59 3.8-.05-7.46-75.42-43.54c-.27-.15-.48-.57-.48-.92v-5.3l-6.37-6.76z"/>
    <linearGradient id="SVGID_00000158713450929226055530000007755219438754133418_" gradientUnits="userSpaceOnUse" x1="229.714" y1="151.048" x2="200.928" y2="94.774" gradientTransform="matrix(-1 0 0 1 614.323 0)">
        <stop offset="0" style="stop-color:#c0d6ff"/>
        <stop offset=".298" style="stop-color:#c5dbff"/>
        <stop offset=".649" style="stop-color:#d3e9ff"/>
        <stop offset="1" style="stop-color:#e9ffff"/>
    </linearGradient>
    <path style="fill:url(#SVGID_00000158713450929226055530000007755219438754133418_)" d="m365.14 93.98 81.74 47.2c.27.15.48-.01.48-.37v-15.43c0-.36-.22-.77-.48-.92l-81.74-47.2c-.27-.15-.48.01-.48.37v15.43c-.01.35.21.77.48.92z"/>
    <path class="st10" d="m376.41 90.85 63.65 37.43a43.322 43.322 0 0 0-5.54 5.76L370.4 97.02c1.85-2.3 3.87-4.38 6.01-6.17z"/>
    <path class="st4" d="m367.47 89.34 77.08 44.5c.18.11.33-.01.33-.25v-3.88c0-.24-.15-.53-.33-.63l-77.08-44.5c-.18-.11-.33.01-.33.25v3.88c0 .25.15.53.33.63z"/>
    <path class="st13" d="m367.47 84.59 1.57.91v2.09c0 .24.15.53.33.63l75.51 43.6v1.78c0 .24-.15.36-.33.25l-77.08-44.5c-.18-.11-.33-.39-.33-.63v-3.88c0-.25.15-.36.33-.25z"/>
    <linearGradient id="SVGID_00000083052434530282290010000006999185867958575247_" gradientUnits="userSpaceOnUse" x1="271.627" y1="269.626" x2="181.422" y2="109.792" gradientTransform="matrix(-1 0 0 1 614.323 0)">
        <stop offset="0" style="stop-color:#c0d6ff"/>
        <stop offset=".12" style="stop-color:#d0e6ff"/>
        <stop offset=".263" style="stop-color:#e9ffff"/>
        <stop offset=".514" style="stop-color:#c0d6ff"/>
        <stop offset=".624" style="stop-color:#d0e6ff"/>
        <stop offset=".755" style="stop-color:#e9ffff"/>
        <stop offset="1" style="stop-color:#c0d6ff"/>
    </linearGradient>
    <path style="opacity:.96;fill:url(#SVGID_00000083052434530282290010000006999185867958575247_)" d="m399.25 295.94-64.13-37.02c9.97-5.75 18.04-19.75 18.04-31.25V125.31c0-13.53 9.5-29.97 21.21-36.74l64.13 37.02c-11.71 6.76-21.21 23.21-21.21 36.74v102.36c0 11.5-8.08 25.5-18.04 31.25z"/>
    <path d="m374.38 88.58 64.13 37.02c-.51.3-1.02.62-1.53.95l-64.12-37.02c.5-.34 1-.66 1.52-.95z" style="opacity:.8;fill:#4553c7"/>
    <path class="st16" d="m446.58 166.16 2.53 1.46v-1.69l-2.53-1.46zM446.58 177.63l2.53 1.46v-9.92l-2.53-1.46zM446.58 183.11l2.53 1.46v-3.94l-2.53-1.46zM446.58 188.79l2.53 1.46v-3.94l-2.53-1.46zM442.81 169.47l2.53 1.46v-3.94l-2.53-1.46zM442.81 177l2.53 1.46v-5.79l-2.53-1.46zM442.81 183.92l2.53 1.46v-4.96l-2.53-1.46zM446.58 194.47l2.53 1.46V192l-2.53-1.46zM442.81 163.99l2.53 1.46v-1.7l-2.53-1.46zM444.69 198.9l4.42 2.55v-1.65l-4.42-2.55z"/>
    <path class="st1" d="m272.41 271.12-.08.37-.11-.25s-.57 1.93-.08 2.89c.48.96 1.2 2.15 2.22 3.5 1.02 1.35 2.66 4.15 3.09 4.69.43.54 2.93 2.63 6.05 2.95 3.12.32 3.92-1.47 3.66-2.43-.26-.97-1.94-3.53-3.77-5.62-1.83-2.09-3.23-4.78-3.23-4.78l-7.75-1.32zM281.8 262.63s-.1 2 .11 2.83c.21.82 4.8 1.08 6.43 1.29 1.63.21 4.48 1.37 5.36 1.81.89.44 6.85 1.07 7.58-1.13.73-2.2-2.99-4.04-5.51-4.62-2.52-.58-6.64-1.84-6.64-1.84l-7.33 1.66z"/>
    <path class="st3" d="M265.89 222.95s-.16 5.62 1.71 13.38c1.87 7.76 1.65 13.19 1.65 13.19s-1.96 8.78-.24 14.77 3.19 7.67 3.19 7.67 3.45 4.57 7.97.47c0 0-2.54-8.23-2.84-14.78 0 0 2.24-4.81 3.02-9.11 0 0 .65 6.82 1.03 9.58 0 0-.39 4.05.69 5.69 1.08 1.64 5.95 2.11 7.5-.73 1.55-2.84-1.29-1.45-.43-14.54 0 0 4.48-5.59 5.13-15.86.65-10.28.58-14.35 0-16.35-.58-2-10.51-9.22-10.51-9.22l-5.6 7.15-12.27 8.69z"/>
    <path class="st1" d="M287.99 234.42c1.62-1.94 2.52-8.02 2.52-8.02s-2.52 5.11-4.33 6.59c-1.81 1.49-3.36 4.46-3.68 6.4s-2.15 9.14-2.15 9.14.65 6.82 1.03 9.58c0 0-.39 4.05.69 5.69.22.33.59.61 1.06.83 0-.08-.27-9.03 0-12.83.27-3.81 3.25-15.44 4.86-17.38z"/>
    <path class="st3" d="M250.97 181.5s-4.28 8.37-4.71 9.01c-.43.65-8.45 10.86-9.22 16.76 0 0-.6 2.28 2.15 4.31 2.76 2.03 16.68 10.86 17.54 10.99.86.13 5.9-2.33 6.12-7.84 0 0-10.9-5.08-13.27-7.63 0 0 4.24-7.13 6.32-9.23.52-.53.83-1.49.99-2.64.68-4.68-1.16-9.39-4.65-12.58l-1.27-1.15z"/>
    <path class="st1" d="M282.98 161.9s6.63 2.46 8.89 1.62c2.26-.84 7.82-1.55 11.63-3.68 3.81-2.13 20.47-6.43 22.94-6.58 0 0 .04.1-.37.27s-2.12.32-2.59 2.26c-.46 1.94.56 4.27.84 4.43.28.16.44-.53 2.04-1.26 1.59-.73 2.57-.69 2.57-.69l.6.76.37.56s-.79 2.35-2.92 2.51c-2.13.16-15.84 5.88-16.7 6.14-.86.26-12.37 5.22-14.52 5.99-2.15.77-3.84 1.76-3.84 1.76s-6.72-4.48-6.94-4.48c-.2 0-2-9.61-2-9.61z"/>
    <path class="st17" d="M343.41 148.97c-.52-.56-6.77 1.23-6.77 1.23s-1.06-.34-2.09-.3c-1.03.04-3.84 2.2-4.83 2.67-.99.47-3.29.68-3.29.68-5.53 1.14-2.43 7.21-2.21 7.12.23-.09 1.73-1.1 2.21-1.35.47-.25 1.32-.38 1.32-.38.25.14 1.38.7 2.14.94s2.64-.04 3.46-.57c.82-.53 3.3-.75 3.42-.68s.51.27.51.27.15.62.65.78c.5.15 1.03-1.06 1.25-1.18.22-.13.93-.6 1.06-.82.13-.22.54-3.73.41-4.35-.13-.62-1.51-1.34-1.51-1.34s3.47-1.16 3.75-1.23c.28-.07 1.03-.93.52-1.49zm-6.16 6.45c-.32.12-.73.1-1.19.32-.46.22-1.01.45-1.48.41 0 0-.65-1.05-.16-1.41.48-.36.87-.68.87-.68s.86-.16.86-.27c0 0 .48.39.96.07 0 0 .53.78 1.26.76 0-.01-.81.67-1.12.8z"/>
    <path class="st1" d="M294.26 216.32c-.58-2-10.51-9.22-10.51-9.22l-2.78 3.55-2.39 9.29-12.69 3.95c0 .01.67 6.35 11.01 5.62 10.34-.73 11.55-8.75 11.55-8.75s1.15 2.63 6.24 3.32c.11-4.25-.05-6.45-.43-7.76z"/>
    <path class="st3" d="m263.54 167.11-1.75 4.48s-8.41 7.28-10.82 9.9c0 0 4.15 7.97 4.93 16.37 0 0 3.85 3.13 5.01 4.58 1.16 1.44 4.1 8.12 5.04 10.32.94 2.2-1.68 8.82-1.68 8.82s3.58 6.6 9.33 6.39c5.75-.22 9.67-3.73 10.41-9.98.73-6.25.52-7.15.52-7.15s2.59 7.67 6.51 7.67 10.15-6.66 10.15-6.66 4.2-3.81 3.81-5.54c-.39-1.72-9.89-16.63-10.41-19.09-.52-2.46-2.65-11.25-2.65-11.25l-8.95-14.09-5.46.26-13.99 4.97z"/>
    <path class="st18" d="M263.54 167.11s-.04 2.67 1.01 5.32c1.06 2.65 4.5 17.58 12.32 22.69l3.01 1.91v-9.5s-.05-5.85-1.39-9.56c-1.34-3.71-1.29-8.23-1.29-8.23s-2.19-.6-2.19-.56c-.01.04-11.47-2.07-11.47-2.07z"/>
    <path class="st17" d="M273.17 174.05s1.39.57 1.99-.34c.6-.9 1.21-2.73 1.05-3.57 0 0 3.7.18 4.43-1.76.73-1.94-.06-2.45-.18-3.05s-.23-2.19-.72-3.34l-.05-.5s.75-.65.41-1.33-2.37-2.79-2.57-3.15.05-2.97-.73-4.28c-.79-1.3-2.31-3.11-2.31-3.11s-7.89-6.15-14.09 0c-6.21 6.15 3.15 17.47 3.15 17.47s.75 3.66 2.56 5.11c1.8 1.48 7.06 1.85 7.06 1.85z"/>
    <path class="st19" d="M267.41 159.07c0-.23-.02-.45-.1-.67-.23-.67-.63-2.49 1.27-3.87 2.37-1.72 6.55-3.27 6.42-5-.13-1.72-6.72-5.99-11.59-3.71-4.87 2.28-9.44 8.06-6.12 14.18 3.32 6.12 6.25 7.11 6.25 7.11s.99-.2.1-1.22-2.5-3.59-1.16-4.4c1.34-.81 3.67.94 3.98 1.33.12.15.24.34.34.51.17.29.53.41.84.26l.11-.05c.31-.14.45-.5.34-.82l-.58-1.58c-.09-.24-.13-.49-.12-.74l.02-1.33z"/>
    <path class="st20" d="M272.97 175.77s-1.76 1.25-2.79 3.64c0 0 1.87-1.94 2.94-2.33 0 0 2.07.97 2.07 1.62 0 .65.19 4.52.68 6.61.48 2.09.43 9.41.43 9.41l1.31.86.62-3.21-.24-6.85-1.22-6.24s-.23-2.36-.32-2.49c-.09-.12-3.48-1.02-3.48-1.02z"/>
    <path class="st1" d="M272.97 175.77s2-2.13 3.02-2.18c1.01-.04 1.56.5 1.58.63.02.12.97 3.46.97 3.46s1.89 5.82 1.7 12.61c-.19 6.79-.36 6.73-.36 6.73l-2.48-1.58s.67-4.86-.68-10.48c-1.36-5.62-.16-6.46-.81-7.05-.65-.57-3.25-1.45-2.94-2.14zM260.91 202.45c1.16 1.44 4.04 8.11 4.98 10.31.15.36.27.84.26 1.38.24.15.38.25.38.25l1.26-1.23s-1.13-4.07-2.94-9.11c-1.81-5.04-8.95-6.17-8.95-6.17s3.84 3.12 5.01 4.57z"/>
    <path class="st17" d="M262.85 214.9s2.05-2.97 2.69-3.36c0 0-.15.84 1.01 1.36 1.16.52 7.25 2.88 7.46 3.15.21.27-.02.61-.4.69 0 0 1.26.43 1.78.42.52-.01 1.21.65.86 1.21-.34.56-.64.52-.64.52s.15.62-.23.76-1.28.16-1.28.16.18.62-.32.87c-.51.25-2.97.52-2.97.52s-1.93-.2-2.48-.22c-.55-.01-3.06.6-4.13.45-1.07-.15-4.59-1.4-4.94-1.61-.36-.2 3.59-4.92 3.59-4.92z"/>
    <path class="st1" d="m261.39 173.05.26 4.01 2.17.68-1.45 1.2s5.87 13.35 13.37 17.57c0 0-7.15-2.54-13.92-17.45 0 0 .71-.84.93-1.08l-1.51-.67.15-4.26zM280.56 172.63s2.66 13.62.39 23.87c0 0 2.72-4.93.26-23.87h-.65z"/>
    <path class="st21" d="M340.51 152.73c-.38-.53-1.37-1.04-1.37-1.04s-2.83 1.15-3.32 1.38c0-.01 2.91-.31 4.69-.34zM324.23 160.37c.12-.04.57-.33 1.05-.63-1.88-2.53.19-6.19.19-6.2-4.17 1.61-1.45 6.91-1.24 6.83zM259.26 219.83c.26.16 2.27.88 3.73 1.31 0 0 .94-3.68.73-4.91-.21-1.23-.73-1.52-.73-1.52-.08.12-.14.2-.14.2s-3.95 4.71-3.59 4.92z"/>
    <path class="st1" d="M262.85 214.73s.63 2.13-.81 3.78-1.6 1.86-1.6 1.86h-1.65s-.86-2.6-.73-2.67c.13-.07 4.79-2.97 4.79-2.97zM278.23 176.6s1.58 9.34 1.23 12.76c-.36 3.43-.23 7.13-.23 7.13l.5.44.15.09s.16.05.36-6.73c.19-6.79-1.7-12.61-1.7-12.61s-.14-.47-.31-1.08zM278.75 273.46c.46-.26.93-.59 1.42-1.03 0 0-2.54-8.23-2.84-14.78 0 0 2.24-4.81 3.02-9.11-.21.85-2.82 5.47-4 10.18-1.19 4.72 2.4 14.74 2.4 14.74z"/>
    <path class="st21" d="M267.18 165.6v-.02.02zM267.18 165.6c.05.23.72 3.56 2.06 5.12 1.39 1.62 2.46 3.17 2.46 3.17.86.11 1.47.15 1.47.15s1.39.57 1.99-.34c.6-.9 1.21-2.73 1.05-3.57 0 0-4.99-.52-6.9-1.84-1.77-1.23-2.09-2.51-2.13-2.69z"/>
    <path d="M265.38 211.57s.27.57.32.61c.05.04.12-.43.12-.43s-.22-.46-.24-.46c-.01-.01-.2.28-.2.28z" style="fill:#1b4263"/>
    <path class="st1" d="M279.88 197.03s3.48 11.13 4.64 13.82l-.07 2.68c0-.01-4.43-13.82-4.57-16.5z"/>
    <path class="st1" d="M283.25 200.99c.2.65-.13 1.32-.73 1.51-.6.18-1.25-.19-1.45-.84-.2-.65.13-1.32.73-1.51.6-.18 1.25.19 1.45.84zM285.01 205.79c.2.65-.13 1.32-.73 1.51-.6.18-1.25-.19-1.45-.84-.2-.65.13-1.32.73-1.51.61-.18 1.25.19 1.45.84z"/>
    <path class="st23" d="M267.5 161.14c-.09-.24-.13-.49-.12-.74l.03-1.33c0-.23-.02-.45-.1-.67-.07-.19-.15-.48-.18-.83 0 0-5.42 3.95-8.86 4.11 2.9 4.63 5.27 5.43 5.27 5.43s.99-.2.1-1.22-2.5-3.59-1.16-4.4c1.34-.81 3.67.94 3.98 1.33.12.15.24.34.34.51.17.29.53.41.84.26l.11-.05c.31-.14.45-.5.34-.82l-.59-1.58z"/>
    <path class="st1" d="M259.11 314.52s2.34.28 4.57.15c2.23-.12 8.34.37 8.33 2.27-.01 1.9-2.93 4.86-6.8 5.6-3.88.74-8.99.24-11.54.53-2.55.28-4.54-1.74-3.76-3.92.77-2.18 9.2-4.63 9.2-4.63zM245.18 310.56s-.72 1.24-.22 1.91c.5.67 1.81 2.33 5.25.31s10.22-5.09 10.22-5.09 3.87-2.18 3.47-4.33c-.41-2.15-4.12-1.5-4.12-1.5l-14.6 8.7z"/>
    <path class="st3" d="M266.35 276.66s-.41 15.08-3.32 20.87c-2.9 5.79-2.93 15.7-3.45 17.61-.52 1.91-2.41 4.73-5.71 5.58-3.31.85-4.06-1.01-4.02-2.18.04-1.17.78-3.12.66-4.38-.12-1.26-.53-1.82-.65-2.4 0 0-3.79 1.31-4.68-1.19 0 0 .23-.78.24-1.16.01-.39-1.46-9.81-1.69-10.97-.23-1.16-.22-7.59.54-10.88.76-3.28-.37-10.13-.37-10.13l11.55-2.48 10.9 1.71z"/>
    <path class="st1" d="M247.49 278.22s.3 2.36 1.62 4.25c0 0 .8 7.91 2.12 11.76 0 0-.66 7.9-1.32 10.39s-.04 7.13-.04 7.13-.43.18-1.06.25c-.63.08-1.7-9.19-.89-10.93.81-1.75.77-9.29.15-11.57-.62-2.28-1.21-8.99-1.85-10.14-.63-1.15.44-1.89.44-1.89l.83.75zM251.84 217.7s3.9 2.23 4.09 6.63l-2.76-.32c.01-.01.38-4.93-1.33-6.31z"/>
    <path class="st1" d="M256.3 280.78c-7.68.88-12.16-1.78-12.16-1.78-.12-.96-.23-1.59-.23-1.59l11.55-2.48 10.9 1.72s-.08 3.02-.44 6.88c-1.86.34-4.06-3.58-4.06-3.58l-5.25.76c0 .01 7.36-.81-.31.07z"/>
    <path class="st3" d="M264.88 277.02s-16.17 7.51-25.57-3.31a1.93 1.93 0 0 1-.46-1.13l-.22-2.76c-.03-.35-.12-.7-.28-1.01-.35-.68-.5-1.44-.43-2.2.28-3.18 1.03-11.98 1.17-14.45.17-3.04-2.96-15.11-6.56-20.28-3.6-5.16 2.58-18.32 2.58-18.32s1.56-3.14 5.39-2.44c0 0-3.28 2.71-1.07 5.06 2.2 2.35 8.17 3.85 8.17 3.85s11.07 4.34 15.18 10.35c0 0 1.48 3.14 1.9 7.19.42 4.06.68 13.68.96 14.97.28 1.3 1.49 10.09 1.47 10.5-.04.41-2.23 13.98-2.23 13.98z"/>
    <path class="st1" d="M238.96 213.11c-.37-.69-.36-1.39-.15-2.03.51-.06 1.06-.08 1.69.04-.01 0-1.02.84-1.54 1.99zM259.9 278.71s-12.38-23.59-12.84-32.94c-.46-9.35 16.59 16.87 16.59 16.87l1.24 14.38c-.01 0-3.1 1.31-4.99 1.69z"/>
    <path class="st3" d="M262.88 249.11c-.54-2.07-.93-4.17-1.13-6.3-.35-3.73-2-9.91-9.2-8.17-10.15 2.45-4.41 15.38-3.07 17.56 1.33 2.18 6.65 11.89 6.93 12.44.26.51 8.09 12.1 10.72 14.76.24.24.63.25.88.02.91-.82 2.97-2.76 3.18-3.9.27-1.47-1.53-6.6-1.53-6.6s-4.89-13.14-5.27-13.75c-.28-.48-.63-2.73-1.51-6.06z"/>
    <path class="st17" d="M251.69 218.03s.67-1.91 2.59-2.27c1.92-.36 2.98-.98 3.12-1.69.14-.71.08-1.56.46-2.64.39-1.08.57-3.7.56-3.76-.01-.06 1.44-.63 1.46-1.28.02-.65-.94-2.88-.87-3.07.07-.19.76-1.67.56-2.77-.2-1.1-.47-2.69-1.18-4.01-.71-1.32-5.66-9.39-16.31-4.05-10.65 5.34-1.26 13.7-1.74 19.59 0 0-.84 1.29 1.15 3.18 1.99 1.88 7.15 1.88 10.2 2.77z"/>
    <path class="st21" d="M241.5 215.25c-1.98-1.89-1.15-3.18-1.15-3.18.07-.81-.06-1.67-.29-2.57l4.35.42s5.8-6.05 5.62-3.06c-.18 3 1.4 3.37 1.4 3.37l-1.14 1.71c-.29.44-.05.9.26 1.33 2.06 2.82 6.31 1.55 6.32 1.55-.51.39-1.38.72-2.58.94-1.92.36-2.59 2.27-2.59 2.27-3.06-.89-8.22-.89-10.2-2.78z"/>
    <path class="st23" d="M258.62 193.32s.95 2.17-.22 3.22c-1.16 1.05-2.21 2.03-2.21 2.03l.24 2.8c.03.4-.05.81-.24 1.16l-1.35 2.48c-.26.48-.37 1.02-.33 1.56l.09 1.13c.03.33-.2.63-.52.69l-.4.08c-.35.07-.7-.16-.77-.51l-.31-1.55s-.92-1.19-2.57.47l-1.54.78c-.43.22-.74.6-.87 1.07-.33 1.24-1.06 3.67-1.73 4.12-.91.61-4.82-.93-5.4-1.71-.58-.78-2.44-6.25-3.52-8.87-1.08-2.62-1.35-9.38 6.7-11.84 8.05-2.48 13.62.53 14.95 2.89z"/>
    <path class="st19" d="M240.49 211.12c-.58-.78-2.44-6.25-3.52-8.87 0 0 3.36 1.78 7.48 2.03 4.13.25 11.8-4.97 11.8-4.97l.18 2.05c.03.4-.05.81-.24 1.16l-1.35 2.48c-.26.48-.37 1.02-.33 1.56l.09 1.13c.03.33-.2.63-.52.69l-.4.08c-.35.07-.7-.16-.77-.51l-.31-1.55s-.92-1.19-2.57.47l-2.22 1.13s-1 4.23-1.91 4.84c-.91.61-4.82-.93-5.41-1.72z"/>
    <path class="st18" d="M240.36 211.4s-2.92 2.14-1.08 4.63c1.83 2.49 13.46 6.14 14.07 6.77 0 0 .09-3.91-1.51-5.1 0 0-8.74-.86-10.3-2.87-1.55-2.01-1.18-3.43-1.18-3.43z"/>
    <path class="st20" d="M240.36 211.4s-.38 1.42 1.18 3.43c1.18 1.52 6.47 2.38 8.98 2.71 0 0-.86.58-2.15 3.2-3.61-1.41-8.02-3.26-9.09-4.72-1.83-2.49 1.08-4.62 1.08-4.62z"/>
    <path class="st1" d="M239.16 219.97s5.26 2.3 7.8 3.32 5.33 2.42 5.33 2.42l.84-.96 1.32 2.23s3.97 1.83 5.88 3.46c1.91 1.64 3.42 3.85 3.65 4.36 0 0-5.16-5.41-9.02-6.83l-1.04-.39-.73-1.79-.83 1c0-.01-11.5-5.33-13.2-6.82z"/>
    <path class="st3" d="M258.74 292.38c.11-.37.29-.69.53-.9l17.66-15.49c.47-.42.97-.17 1.12.54l3.16 15.87c.14.71-.13 1.63-.6 2.05l-14.53 12.74.88 4.28-4.67-1.37v-.01c-.21-.09-.39-.33-.46-.7l-3.16-15.87c-.08-.36-.04-.77.07-1.14z"/>
    <path class="st3" d="m282.17 277.16-4.57-1.33-.15-.04c-.17-.02-.35.04-.53.2l-17.66 15.49c-.23.2-.42.53-.53.9l.69.22 3.9 1.25 15.44-13.67 3.41-3.02z"/>
    <path class="st1" d="m285.23 295.8-17.66 15.49c-.47.42-.97.17-1.12-.54l-3.16-15.87c-.14-.71.13-1.63.6-2.05l17.66-15.49c.47-.42.97-.17 1.12.54l3.16 15.87c.14.72-.13 1.63-.6 2.05z"/>
    <path class="st1" d="m264.08 310.03-3.16-15.87c-.14-.71.13-1.63.6-2.05l17.66-15.49c.15-.13.3-.19.44-.2-.18-.05-.39.01-.6.19l-17.66 15.49c-.47.42-.74 1.33-.6 2.05l3.16 15.87c.1.49.35.78.67.76-.25-.07-.43-.34-.51-.75z"/>
    <path class="st1" d="m268.87 285.56-1.01-.34c-.23-.08-.44-.09-.62-.04l-.08.02c-.1.03-.14.12-.11.25l.03.15 2.84.96-.03-.15a.722.722 0 0 0-.24-.37l-.1-.08c-.22-.18-.45-.32-.68-.4z"/>
    <path class="st1" d="m268.68 287.66 1.24-1.09-2.84-1.31-1.23 1.07z"/>
    <path class="st1" d="m267.63 286.65-1.01-.34c-.23-.08-.44-.09-.62-.04l-.08.02c-.1.03-.14.12-.11.25l.03.15 2.84.96-.03-.15a.722.722 0 0 0-.24-.37l-.1-.08c-.22-.18-.46-.32-.68-.4z"/>
    <path class="st1" d="m267.07 287.12-.14-.7.09.03.14.7zM266.94 286.42l1.28-1.08.07.03-1.27 1.08zM274.5 280.63l-1.01-.34c-.23-.08-.44-.09-.62-.04l-.08.02c-.1.03-.14.12-.11.25l.03.15 2.84.96-.03-.15a.722.722 0 0 0-.24-.37l-.1-.08a2.17 2.17 0 0 0-.68-.4z"/>
    <path class="st1" d="m274.32 282.73 1.24-1.09-2.85-1.31-1.22 1.07z"/>
    <path class="st1" d="m273.26 281.72-1.01-.34c-.23-.08-.44-.09-.62-.04l-.08.02c-.1.03-.14.12-.11.25l.03.15 2.84.96-.03-.15a.722.722 0 0 0-.24-.37l-.1-.08a2.17 2.17 0 0 0-.68-.4z"/>
    <path class="st1" d="m272.71 282.18-.14-.69.09.02.14.7z"/>
    <path class="st1" d="m272.57 281.49 1.28-1.08.08.02-1.27 1.08zM266.14 283.1l.59 2.97.83-.73-.57-2.89c-.08-.42.11-1 .44-1.28l3.62-3.18c.32-.28.66-.17.74.25l.57 2.89.83-.73-.59-2.97c-.19-.93-.92-1.18-1.63-.55l-3.87 3.39c-.71.63-1.14 1.89-.96 2.83z"/>
    <path class="st1" d="M272.38 277.67h-1.59l-4.28 4.17-.01 2.32.24 1.91 1.05.36-.15-2.39-.07-1.65.85-1.27s1.62-1.37 1.63-1.41c.01-.04 2.33-2.04 2.33-2.04zM273.41 281.49l-1.05-.36-.42-2.13.98-.01.29.02zM273.06 276.93l-1.13-.38s.33.51.33.5c0 0 .37.08.38.08l.42-.2z"/>
    <path class="st1" d="m267.19 283.45.59 2.97.83-.73-.57-2.89c-.08-.42.11-1 .44-1.28l3.62-3.18c.32-.28.66-.17.74.25l.57 2.89.83-.73-.59-2.97c-.19-.93-.92-1.18-1.63-.55l-3.87 3.39c-.72.63-1.15 1.9-.96 2.83z"/>
    <path class="st17" d="M270.9 275.41s.87 2.94.74 3.7c-.13.76-1.63 2.34-2.57 2.69-.95.35-.63-.7-.9-1.33-.27-.62-.34-2.02-.34-2.02l3.07-3.04z"/>
    <path class="st21" d="m267.83 278.45 3.07-3.04s.18.6.36 1.34c0 0-1.05 2.33-3.2 3.4-.18-.7-.23-1.7-.23-1.7z"/>
    <path class="st1" d="M271.16 275.61s-.93 3.33-3.8 3.88l.72-3.61s2.42-.84 2.49-.85c.07-.02.59.58.59.58z"/>
    <g style="opacity:.32">
        <path class="st13" d="m394.4 149.92 10.49 6.05v-1.16l-10.49-6.06zM389.02 146.81l3.78 2.18v-1.17l-3.78-2.18zM384.86 144.41l2.56 1.48v-1.17l-2.56-1.48zM399.18 155.34l5.71 3.3v-1.16l-5.71-3.3zM390.57 150.38l7.01 4.04v-1.17l-7.01-4.04zM386.4 147.97l2.57 1.48v-1.17l-2.57-1.48zM382.44 145.68l2.56 1.48v-1.17l-2.56-1.48zM400.76 158.93l4.13 2.38v-1.16l-4.13-2.39zM397.74 157.19l1.42.81v-1.17l-1.42-.81zM393.57 154.78l2.57 1.48v-1.17l-2.57-1.48zM389.63 155.17l15.26 8.81v-1.16L389.63 154zM384.25 152.07l3.78 2.18v-1.17l-3.78-2.18zM400.76 164.27l4.13 2.38v-1.16l-4.13-2.39zM391.05 158.66l8.11 4.68v-1.17l-8.11-4.68zM386.88 156.26l2.57 1.48v-1.17l-2.57-1.48zM396.43 164.44l8.46 4.88v-1.16l-8.46-4.89zM388.71 159.98l6.12 3.53v-1.16l-6.12-3.54zM382.97 156.67l4.14 2.39v-1.17l-4.14-2.39zM402.04 170.34l2.85 1.65v-1.16l-2.85-1.65zM396.66 167.24l3.77 2.18v-1.17l-3.77-2.18zM388.97 162.8l6.08 3.51v-1.17l-6.08-3.51zM396.14 169.61l8.75 5.05v-1.16l-8.75-5.06zM386.34 163.95l8.2 4.74v-1.17l-8.2-4.74zM382.17 161.54l2.56 1.48v-1.16l-2.56-1.49zM378.17 159.23l2.56 1.48v-1.16l-2.56-1.49zM399.65 174.31l5.24 3.02v-1.16l-5.24-3.03zM373.13 137.63l-7.28-4.2v-1.16l7.28 4.19zM371.57 139.4l-5.72-3.3v-1.16l5.72 3.3zM369.99 141.16l-4.14-2.39v-1.16l4.14 2.38zM371.87 144.92l-6.02-3.48v-1.16l6.02 3.47zM369.99 146.5l-4.14-2.39v-1.16l4.14 2.38zM371.1 149.81l-5.25-3.03v-1.16l5.25 3.02zM368.71 151.1l-2.86-1.65v-1.16l2.86 1.65zM371.39 155.32l-5.54-3.2v-1.16l5.54 3.19zM371.1 157.82l-5.25-3.03v-1.16l5.25 3.02zM395.82 172.09l2.23 1.29v-1.17l-2.23-1.29zM389.19 168.27l5.02 2.9V170l-5.02-2.9zM383.45 178.87l8.47 4.89v-1.17l-8.47-4.89zM377.65 175.52l3.33 1.93v-1.17l-3.33-1.93z"/>
    </g>
</svg>
