<?xml version="1.0" encoding="utf-8"?>
<!-- Generator: Adobe Illustrator 27.3.1, SVG Export Plug-In . SVG Version: 6.00 Build 0)  -->
<svg version="1.1" id="Ñëîé_1" xmlns="http://www.w3.org/2000/svg" xmlns:xlink="http://www.w3.org/1999/xlink" x="0px" y="0px"
	 viewBox="0 0 700 400" style="enable-background:new 0 0 700 400;" xml:space="preserve">
<style type="text/css">
	.st0{fill:#F0E6FF;}
	.st1{fill:#6F35A5;}
	.st2{fill:url(#SVGID_1_);}
	.st3{fill:#9169BC;}
	.st4{fill:#242993;}
	.st5{opacity:0.51;}
	.st6{fill:#5778FF;}
	.st7{fill:#BCD5FF;}
	.st8{fill:#E9FFFF;}
	.st9{opacity:0.11;}
	.st10{opacity:0.6;fill:#242993;}
	.st11{fill:url(#SVGID_00000162352705623094660290000018164736111615074742_);}
	.st12{fill:url(#SVGID_00000116200901249898704430000006201954451129822872_);}
	.st13{fill:#4553C7;}
	.st14{opacity:0.96;fill:url(#SVGID_00000028283340074652902120000011644616339527780025_);}
	.st15{opacity:0.8;fill:#4553C7;}
	.st16{fill:#42FFFF;}
	.st17{fill:#FCE8EE;}
	.st18{fill:#F0FFFF;}
	.st19{fill:#2B282B;}
	.st20{fill:#C4E3FF;}
	.st21{fill:#E2C8CF;}
	.st22{fill:#1B4263;}
	.st23{fill:#3A3A3A;}
	.st24{opacity:0.32;}
</style>
<path class="st0" d="M267.3,395.83l-90.48-52.24c-1.7-0.98-1.49-2.7,0.48-3.84l220.37-127.23l63.49,74.95L273.95,395.56
	C271.98,396.69,269,396.82,267.3,395.83z"/>
<g>
	<g>
		<g>
			<g>
				<g>
					<path class="st1" d="M365,21.63l10.59-6.1l0,0.02c0.43-0.22,0.97-0.2,1.57,0.14l91.17,52.64c1.37,0.79,2.48,2.92,2.48,4.74
						v207.39c0,1.01-0.35,1.7-0.88,2l0.02,0.01l-10.58,6.09l-0.23-11.53l-81.98-47.33c-1.37-0.79-2.48-2.92-2.48-4.74V27.07
						c-0.21,0.67-0.38,1.16-0.4,1.18C374.19,28.3,365,21.63,365,21.63z"/>
					
						<linearGradient id="SVGID_1_" gradientUnits="userSpaceOnUse" x1="159.4326" y1="88.2161" x2="159.4326" y2="68.647" gradientTransform="matrix(-1 0 0 1 614.3235 0)">
						<stop  offset="0" style="stop-color:#C0D6FF"/>
						<stop  offset="0.2978" style="stop-color:#C5DBFF"/>
						<stop  offset="0.6488" style="stop-color:#D3E9FF"/>
						<stop  offset="1" style="stop-color:#E9FFFF"/>
					</linearGradient>
					<path class="st2" d="M470.75,72.31L443.2,88.22l-4.16-2.4l29.73-17.17C469.75,69.45,470.53,70.9,470.75,72.31z"/>
					<path class="st3" d="M366.64,235.76l91.17,52.64c1.37,0.79,2.48-0.05,2.48-1.88V79.13c0-1.83-1.11-3.95-2.48-4.74l-91.17-52.64
						c-1.37-0.79-2.48,0.05-2.48,1.88v207.39C364.15,232.84,365.26,234.97,366.64,235.76z"/>
					<polygon class="st4" points="364.15,219.66 460.29,275.17 460.29,90.48 364.15,34.98 					"/>
					<polygon class="st1" points="364.15,219.66 460.29,275.17 460.29,90.48 364.15,34.98 					"/>
					<g class="st5">
						<polygon class="st0" points="364.15,213.19 460.29,268.69 460.29,96.4 364.15,40.89 						"/>
					</g>
					<path class="st6" d="M404.73,53.09l17.39,10.08c0.51,0.29,0.94,0.38,1.13-0.1c0.06-0.16,0.1-0.36,0.1-0.59l0,0
						c0-0.9-0.55-1.96-1.23-2.35l-17.57-10.15c-0.05-0.03-0.1-0.09-0.16-0.08c-0.55,0.15-0.65,0.26-0.65,1.1l0.08,0.23
						C403.82,52.14,404.05,52.69,404.73,53.09z"/>
					<path class="st7" d="M404.39,49.91c-0.06,0.16-0.1,0.36-0.1,0.58c0,0.9,0.55,1.96,1.23,2.35l17.57,10.15
						c0.05,0.03,0.11,0.05,0.16,0.07c-0.19,0.48-0.62,0.64-1.13,0.35l-17.57-10.15c-0.68-0.39-1.23-1.44-1.23-2.35
						C403.32,50.08,403.78,49.67,404.39,49.91z"/>
					<g>
						<path class="st8" d="M465.9,96.35l0.2-0.11c0.32-0.19,0.61-0.2,0.84-0.07l0-0.01l0.75,0.43l-0.36,0.03
							c0.07,0.17,0.11,0.39,0.11,0.63v12.01c0,0.98-0.6,2.12-1.33,2.54l-0.2,0.11c-0.09,0.05-0.18,0.09-0.27,0.12l0.19,0.4
							l-0.8-0.46l0.01,0c-0.29-0.16-0.47-0.53-0.47-1.07V98.89C464.57,97.91,465.17,96.77,465.9,96.35z"/>
						<path class="st7" d="M466.66,112.34l0.2-0.11c0.74-0.42,1.33-1.56,1.33-2.54V97.67c0-0.98-0.6-1.43-1.33-1.01l-0.2,0.11
							c-0.74,0.42-1.33,1.56-1.33,2.54v12.01C465.33,112.31,465.92,112.77,466.66,112.34z"/>
					</g>
					<g>
						<path class="st8" d="M465.9,114.67l0.2-0.11c0.32-0.19,0.61-0.2,0.84-0.07l0-0.01l0.75,0.43l-0.36,0.03
							c0.07,0.17,0.11,0.39,0.11,0.63v12.01c0,0.98-0.6,2.12-1.33,2.54l-0.2,0.11c-0.09,0.05-0.18,0.09-0.27,0.12l0.19,0.4
							l-0.8-0.46l0.01,0c-0.29-0.16-0.47-0.53-0.47-1.07v-12.01C464.57,116.24,465.17,115.1,465.9,114.67z"/>
						<path class="st7" d="M466.66,130.67l0.2-0.11c0.74-0.42,1.33-1.56,1.33-2.54V116c0-0.98-0.6-1.43-1.33-1.01l-0.2,0.11
							c-0.74,0.42-1.33,1.56-1.33,2.54v12.01C465.33,130.64,465.92,131.09,466.66,130.67z"/>
					</g>
				</g>
			</g>
			<g class="st9">
				<defs>
					<polygon id="SVGID_00000111882630277047098890000005605379564489129367_" class="st9" points="364.15,213.19 460.29,268.69 
						460.29,96.4 364.15,40.89 					"/>
				</defs>
				<clipPath id="SVGID_00000097478425515965710960000011324283369822113676_">
					<use xlink:href="#SVGID_00000111882630277047098890000005605379564489129367_"  style="overflow:visible;"/>
				</clipPath>
			</g>
			<path class="st10" d="M364.15,231.02v-116.9c3.55-9.85,10.63-19.26,18.78-23.97l0,0l64.13,37.02
				c-11.71,6.76-21.21,23.21-21.21,36.74v102.36c0,1.15-0.1,2.34-0.26,3.53l-58.96-34.04C365.26,234.97,364.15,232.84,364.15,231.02
				z"/>
			<g>
				<g>
					
						<linearGradient id="SVGID_00000089567541686163362340000010713160024238315399_" gradientUnits="userSpaceOnUse" x1="176.5836" y1="150.7713" x2="219.8317" y2="72.8968" gradientTransform="matrix(-1 0 0 1 614.3235 0)">
						<stop  offset="0" style="stop-color:#5778FF"/>
						<stop  offset="0.0398" style="stop-color:#5C7DFF"/>
						<stop  offset="0.0867" style="stop-color:#6A8AFF"/>
						<stop  offset="0.1372" style="stop-color:#82A0FF"/>
						<stop  offset="0.1899" style="stop-color:#A3BEFF"/>
						<stop  offset="0.2237" style="stop-color:#BCD5FF"/>
					</linearGradient>
					<path style="fill:url(#SVGID_00000089567541686163362340000010713160024238315399_);" d="M364.84,77.22l6.52-3.76v0.01
						c0.09-0.06,0.2-0.06,0.33,0.01l81.74,47.2c0.27,0.15,0.48,0.57,0.48,0.92v15.43c0,0.17-0.05,0.29-0.13,0.36l0,0l-0.01,0
						c-0.01,0.01-0.01,0.01-0.02,0.01l-6.59,3.8l-0.05-7.46L371.69,90.2c-0.27-0.15-0.48-0.57-0.48-0.92v-5.3L364.84,77.22z"/>
					
						<linearGradient id="SVGID_00000158713450929226055530000007755219438754133418_" gradientUnits="userSpaceOnUse" x1="229.7135" y1="151.0475" x2="200.9276" y2="94.7742" gradientTransform="matrix(-1 0 0 1 614.3235 0)">
						<stop  offset="0" style="stop-color:#C0D6FF"/>
						<stop  offset="0.2978" style="stop-color:#C5DBFF"/>
						<stop  offset="0.6488" style="stop-color:#D3E9FF"/>
						<stop  offset="1" style="stop-color:#E9FFFF"/>
					</linearGradient>
					<path style="fill:url(#SVGID_00000158713450929226055530000007755219438754133418_);" d="M365.14,93.98l81.74,47.2
						c0.27,0.15,0.48-0.01,0.48-0.37v-15.43c0-0.36-0.22-0.77-0.48-0.92l-81.74-47.2c-0.27-0.15-0.48,0.01-0.48,0.37v15.43
						C364.65,93.41,364.87,93.83,365.14,93.98z"/>
					<path class="st10" d="M376.41,90.85l63.65,37.43c-1.97,1.69-3.83,3.63-5.54,5.76L370.4,97.02
						C372.25,94.72,374.27,92.64,376.41,90.85z"/>
					<path class="st4" d="M367.47,89.34l77.08,44.5c0.18,0.11,0.33-0.01,0.33-0.25v-3.88c0-0.24-0.15-0.53-0.33-0.63l-77.08-44.5
						c-0.18-0.11-0.33,0.01-0.33,0.25v3.88C367.14,88.96,367.29,89.24,367.47,89.34z"/>
					<path class="st13" d="M367.47,84.59l1.57,0.91v2.09c0,0.24,0.15,0.53,0.33,0.63l75.51,43.6v1.78c0,0.24-0.15,0.36-0.33,0.25
						l-77.08-44.5c-0.18-0.11-0.33-0.39-0.33-0.63v-3.88C367.14,84.59,367.29,84.48,367.47,84.59z"/>
				</g>
				
					<linearGradient id="SVGID_00000083052434530282290010000006999185867958575247_" gradientUnits="userSpaceOnUse" x1="271.6265" y1="269.6261" x2="181.4222" y2="109.7924" gradientTransform="matrix(-1 0 0 1 614.3235 0)">
					<stop  offset="0" style="stop-color:#C0D6FF"/>
					<stop  offset="0.1196" style="stop-color:#D0E6FF"/>
					<stop  offset="0.2627" style="stop-color:#E9FFFF"/>
					<stop  offset="0.5143" style="stop-color:#C0D6FF"/>
					<stop  offset="0.6239" style="stop-color:#D0E6FF"/>
					<stop  offset="0.755" style="stop-color:#E9FFFF"/>
					<stop  offset="1" style="stop-color:#C0D6FF"/>
				</linearGradient>
				<path style="opacity:0.96;fill:url(#SVGID_00000083052434530282290010000006999185867958575247_);" d="M399.25,295.94
					l-64.13-37.02l0,0c9.97-5.75,18.04-19.75,18.04-31.25V125.31c0-13.53,9.5-29.97,21.21-36.74l0,0l64.13,37.02h0
					c-11.71,6.76-21.21,23.21-21.21,36.74v102.36C417.29,276.19,409.21,290.19,399.25,295.94L399.25,295.94z"/>
				<path class="st15" d="M374.38,88.58l64.13,37.02c-0.51,0.3-1.02,0.62-1.53,0.95l0,0l-64.12-37.02
					C373.36,89.19,373.86,88.87,374.38,88.58z"/>
			</g>
		</g>
		<g>
			<polygon class="st16" points="446.58,166.16 449.11,167.62 449.11,165.93 446.58,164.47 			"/>
			<polygon class="st16" points="446.58,177.63 449.11,179.09 449.11,169.17 446.58,167.71 			"/>
			<polygon class="st16" points="446.58,183.11 449.11,184.57 449.11,180.63 446.58,179.17 			"/>
			<polygon class="st16" points="446.58,188.79 449.11,190.25 449.11,186.31 446.58,184.85 			"/>
			<polygon class="st16" points="442.81,169.47 445.34,170.93 445.34,166.99 442.81,165.53 			"/>
			<polygon class="st16" points="442.81,177 445.34,178.46 445.34,172.67 442.81,171.21 			"/>
			<polygon class="st16" points="442.81,183.92 445.34,185.38 445.34,180.42 442.81,178.96 			"/>
			<polygon class="st16" points="446.58,194.47 449.11,195.93 449.11,192 446.58,190.54 			"/>
			<polygon class="st16" points="442.81,163.99 445.34,165.45 445.34,163.75 442.81,162.29 			"/>
		</g>
		<polygon class="st16" points="444.69,198.9 449.11,201.45 449.11,199.8 444.69,197.25 		"/>
	</g>
</g>
<g>
	<g>
		<path class="st1" d="M272.41,271.12l-0.08,0.37l-0.11-0.25c0,0-0.57,1.93-0.08,2.89c0.48,0.96,1.2,2.15,2.22,3.5
			c1.02,1.35,2.66,4.15,3.09,4.69c0.43,0.54,2.93,2.63,6.05,2.95c3.12,0.32,3.92-1.47,3.66-2.43c-0.26-0.97-1.94-3.53-3.77-5.62
			c-1.83-2.09-3.23-4.78-3.23-4.78L272.41,271.12z"/>
		<path class="st1" d="M281.8,262.63c0,0-0.1,2,0.11,2.83c0.21,0.82,4.8,1.08,6.43,1.29c1.63,0.21,4.48,1.37,5.36,1.81
			c0.89,0.44,6.85,1.07,7.58-1.13c0.73-2.2-2.99-4.04-5.51-4.62c-2.52-0.58-6.64-1.84-6.64-1.84L281.8,262.63z"/>
		<path class="st3" d="M265.89,222.95c0,0-0.16,5.62,1.71,13.38c1.87,7.76,1.65,13.19,1.65,13.19s-1.96,8.78-0.24,14.77
			c1.72,5.99,3.19,7.67,3.19,7.67s3.45,4.57,7.97,0.47c0,0-2.54-8.23-2.84-14.78c0,0,2.24-4.81,3.02-9.11c0,0,0.65,6.82,1.03,9.58
			c0,0-0.39,4.05,0.69,5.69c1.08,1.64,5.95,2.11,7.5-0.73c1.55-2.84-1.29-1.45-0.43-14.54c0,0,4.48-5.59,5.13-15.86
			c0.65-10.28,0.58-14.35,0-16.35c-0.58-2-10.51-9.22-10.51-9.22l-5.6,7.15L265.89,222.95z"/>
		<path class="st1" d="M287.99,234.42c1.62-1.94,2.52-8.02,2.52-8.02s-2.52,5.11-4.33,6.59c-1.81,1.49-3.36,4.46-3.68,6.4
			s-2.15,9.14-2.15,9.14s0.65,6.82,1.03,9.58c0,0-0.39,4.05,0.69,5.69c0.22,0.33,0.59,0.61,1.06,0.83c0-0.08-0.27-9.03,0-12.83
			C283.4,247.99,286.38,236.36,287.99,234.42z"/>
		<path class="st3" d="M250.97,181.5c0,0-4.28,8.37-4.71,9.01c-0.43,0.65-8.45,10.86-9.22,16.76c0,0-0.6,2.28,2.15,4.31
			c2.76,2.03,16.68,10.86,17.54,10.99c0.86,0.13,5.9-2.33,6.12-7.84c0,0-10.9-5.08-13.27-7.63c0,0,4.24-7.13,6.32-9.23
			c0.52-0.53,0.83-1.49,0.99-2.64c0.68-4.68-1.16-9.39-4.65-12.58L250.97,181.5z"/>
		<path class="st1" d="M282.98,161.9c0,0,6.63,2.46,8.89,1.62c2.26-0.84,7.82-1.55,11.63-3.68c3.81-2.13,20.47-6.43,22.94-6.58
			c0,0,0.04,0.1-0.37,0.27c-0.41,0.17-2.12,0.32-2.59,2.26c-0.46,1.94,0.56,4.27,0.84,4.43c0.28,0.16,0.44-0.53,2.04-1.26
			c1.59-0.73,2.57-0.69,2.57-0.69l0.6,0.76l0.37,0.56c0,0-0.79,2.35-2.92,2.51c-2.13,0.16-15.84,5.88-16.7,6.14
			c-0.86,0.26-12.37,5.22-14.52,5.99c-2.15,0.77-3.84,1.76-3.84,1.76s-6.72-4.48-6.94-4.48C284.78,171.51,282.98,161.9,282.98,161.9
			z"/>
		<path class="st17" d="M343.41,148.97c-0.52-0.56-6.77,1.23-6.77,1.23s-1.06-0.34-2.09-0.3c-1.03,0.04-3.84,2.2-4.83,2.67
			c-0.99,0.47-3.29,0.68-3.29,0.68c-5.53,1.14-2.43,7.21-2.21,7.12c0.23-0.09,1.73-1.1,2.21-1.35c0.47-0.25,1.32-0.38,1.32-0.38
			c0.25,0.14,1.38,0.7,2.14,0.94s2.64-0.04,3.46-0.57c0.82-0.53,3.3-0.75,3.42-0.68s0.51,0.27,0.51,0.27s0.15,0.62,0.65,0.78
			c0.5,0.15,1.03-1.06,1.25-1.18c0.22-0.13,0.93-0.6,1.06-0.82c0.13-0.22,0.54-3.73,0.41-4.35c-0.13-0.62-1.51-1.34-1.51-1.34
			s3.47-1.16,3.75-1.23C343.17,150.39,343.92,149.53,343.41,148.97z M337.25,155.42c-0.32,0.12-0.73,0.1-1.19,0.32
			c-0.46,0.22-1.01,0.45-1.48,0.41c0,0-0.65-1.05-0.16-1.41c0.48-0.36,0.87-0.68,0.87-0.68s0.86-0.16,0.86-0.27
			c0,0,0.48,0.39,0.96,0.07c0,0,0.53,0.78,1.26,0.76C338.37,154.61,337.56,155.29,337.25,155.42z"/>
		<path class="st1" d="M294.26,216.32c-0.58-2-10.51-9.22-10.51-9.22l-2.78,3.55l-2.39,9.29l-12.69,3.95v0
			c0,0.01,0.67,6.35,11.01,5.62c10.34-0.73,11.55-8.75,11.55-8.75s1.15,2.63,6.24,3.32C294.8,219.83,294.64,217.63,294.26,216.32z"
			/>
		<path class="st3" d="M263.54,167.11l-1.75,4.48c0,0-8.41,7.28-10.82,9.9c0,0,4.15,7.97,4.93,16.37c0,0,3.85,3.13,5.01,4.58
			c1.16,1.44,4.1,8.12,5.04,10.32c0.94,2.2-1.68,8.82-1.68,8.82s3.58,6.6,9.33,6.39c5.75-0.22,9.67-3.73,10.41-9.98
			c0.73-6.25,0.52-7.15,0.52-7.15s2.59,7.67,6.51,7.67c3.92,0,10.15-6.66,10.15-6.66s4.2-3.81,3.81-5.54
			c-0.39-1.72-9.89-16.63-10.41-19.09c-0.52-2.46-2.65-11.25-2.65-11.25l-8.95-14.09l-5.46,0.26L263.54,167.11z"/>
		<path class="st18" d="M263.54,167.11c0,0-0.04,2.67,1.01,5.32c1.06,2.65,4.5,17.58,12.32,22.69l3.01,1.91v-9.5
			c0,0-0.05-5.85-1.39-9.56c-1.34-3.71-1.29-8.23-1.29-8.23s-2.19-0.6-2.19-0.56C275,169.22,263.54,167.11,263.54,167.11z"/>
		<path class="st17" d="M273.17,174.05c0,0,1.39,0.57,1.99-0.34c0.6-0.9,1.21-2.73,1.05-3.57c0,0,3.7,0.18,4.43-1.76
			c0.73-1.94-0.06-2.45-0.18-3.05s-0.23-2.19-0.72-3.34l-0.05-0.5c0,0,0.75-0.65,0.41-1.33c-0.34-0.68-2.37-2.79-2.57-3.15
			s0.05-2.97-0.73-4.28c-0.79-1.3-2.31-3.11-2.31-3.11s-7.89-6.15-14.09,0c-6.21,6.15,3.15,17.47,3.15,17.47s0.75,3.66,2.56,5.11
			C267.91,173.68,273.17,174.05,273.17,174.05z"/>
		<path class="st19" d="M267.41,159.07c0-0.23-0.02-0.45-0.1-0.67c-0.23-0.67-0.63-2.49,1.27-3.87c2.37-1.72,6.55-3.27,6.42-5
			c-0.13-1.72-6.72-5.99-11.59-3.71c-4.87,2.28-9.44,8.06-6.12,14.18c3.32,6.12,6.25,7.11,6.25,7.11s0.99-0.2,0.1-1.22
			c-0.89-1.02-2.5-3.59-1.16-4.4c1.34-0.81,3.67,0.94,3.98,1.33c0.12,0.15,0.24,0.34,0.34,0.51c0.17,0.29,0.53,0.41,0.84,0.26
			l0.11-0.05c0.31-0.14,0.45-0.5,0.34-0.82l-0.58-1.58c-0.09-0.24-0.13-0.49-0.12-0.74L267.41,159.07z"/>
		<path class="st20" d="M272.97,175.77c0,0-1.76,1.25-2.79,3.64c0,0,1.87-1.94,2.94-2.33c0,0,2.07,0.97,2.07,1.62
			c0,0.65,0.19,4.52,0.68,6.61c0.48,2.09,0.43,9.41,0.43,9.41l1.31,0.86l0.62-3.21l-0.24-6.85l-1.22-6.24c0,0-0.23-2.36-0.32-2.49
			C276.36,176.67,272.97,175.77,272.97,175.77z"/>
		<path class="st1" d="M272.97,175.77c0,0,2-2.13,3.02-2.18c1.01-0.04,1.56,0.5,1.58,0.63c0.02,0.12,0.97,3.46,0.97,3.46
			s1.89,5.82,1.7,12.61c-0.19,6.79-0.36,6.73-0.36,6.73l-2.48-1.58c0,0,0.67-4.86-0.68-10.48c-1.36-5.62-0.16-6.46-0.81-7.05
			C275.26,177.34,272.66,176.46,272.97,175.77z"/>
		<path class="st1" d="M260.91,202.45c1.16,1.44,4.04,8.11,4.98,10.31c0.15,0.36,0.27,0.84,0.26,1.38c0.24,0.15,0.38,0.25,0.38,0.25
			l1.26-1.23c0,0-1.13-4.07-2.94-9.11c-1.81-5.04-8.95-6.17-8.95-6.17S259.74,201,260.91,202.45z"/>
		<path class="st17" d="M262.85,214.9c0,0,2.05-2.97,2.69-3.36c0,0-0.15,0.84,1.01,1.36c1.16,0.52,7.25,2.88,7.46,3.15
			c0.21,0.27-0.02,0.61-0.4,0.69c0,0,1.26,0.43,1.78,0.42c0.52-0.01,1.21,0.65,0.86,1.21c-0.34,0.56-0.64,0.52-0.64,0.52
			s0.15,0.62-0.23,0.76c-0.38,0.14-1.28,0.16-1.28,0.16s0.18,0.62-0.32,0.87c-0.51,0.25-2.97,0.52-2.97,0.52s-1.93-0.2-2.48-0.22
			c-0.55-0.01-3.06,0.6-4.13,0.45c-1.07-0.15-4.59-1.4-4.94-1.61C258.9,219.62,262.85,214.9,262.85,214.9z"/>
		<path class="st1" d="M261.39,173.05l0.26,4.01l2.17,0.68l-1.45,1.2c0,0,5.87,13.35,13.37,17.57c0,0-7.15-2.54-13.92-17.45
			c0,0,0.71-0.84,0.93-1.08l-1.51-0.67L261.39,173.05z"/>
		<path class="st1" d="M280.56,172.63c0,0,2.66,13.62,0.39,23.87c0,0,2.72-4.93,0.26-23.87H280.56z"/>
		<path class="st21" d="M340.51,152.73c-0.38-0.53-1.37-1.04-1.37-1.04s-2.83,1.15-3.32,1.38
			C335.82,153.06,338.73,152.76,340.51,152.73z"/>
		<path class="st21" d="M324.23,160.37c0.12-0.04,0.57-0.33,1.05-0.63v0c-1.88-2.53,0.19-6.19,0.19-6.2
			C321.3,155.15,324.02,160.45,324.23,160.37z"/>
		<path class="st21" d="M259.26,219.83c0.26,0.16,2.27,0.88,3.73,1.31c0,0,0.94-3.68,0.73-4.91c-0.21-1.23-0.73-1.52-0.73-1.52
			c-0.08,0.12-0.14,0.2-0.14,0.2S258.9,219.62,259.26,219.83z"/>
		<path class="st1" d="M262.85,214.73c0,0,0.63,2.13-0.81,3.78c-1.44,1.65-1.6,1.86-1.6,1.86h-1.65c0,0-0.86-2.6-0.73-2.67
			C258.19,217.63,262.85,214.73,262.85,214.73z"/>
		<path class="st1" d="M278.23,176.6L278.23,176.6c0,0,1.58,9.34,1.23,12.76c-0.36,3.43-0.23,7.13-0.23,7.13l0.5,0.44l0.15,0.09
			c0,0,0.16,0.05,0.36-6.73c0.19-6.79-1.7-12.61-1.7-12.61S278.4,177.21,278.23,176.6z"/>
		<g>
			<path class="st1" d="M278.75,273.46c0.46-0.26,0.93-0.59,1.42-1.03c0,0-2.54-8.23-2.84-14.78c0,0,2.24-4.81,3.02-9.11
				c-0.21,0.85-2.82,5.47-4,10.18C275.16,263.44,278.75,273.46,278.75,273.46z"/>
		</g>
		<g>
			<path class="st21" d="M267.18,165.6c0-0.01,0-0.02,0-0.02S267.18,165.59,267.18,165.6z"/>
			<path class="st21" d="M267.18,165.6c0.05,0.23,0.72,3.56,2.06,5.12c1.39,1.62,2.46,3.17,2.46,3.17c0.86,0.11,1.47,0.15,1.47,0.15
				s1.39,0.57,1.99-0.34c0.6-0.9,1.21-2.73,1.05-3.57c0,0-4.99-0.52-6.9-1.84C267.54,167.06,267.22,165.78,267.18,165.6z"/>
		</g>
		<path class="st22" d="M265.38,211.57c0,0,0.27,0.57,0.32,0.61c0.05,0.04,0.12-0.43,0.12-0.43s-0.22-0.46-0.24-0.46
			C265.57,211.28,265.38,211.57,265.38,211.57z"/>
		<path class="st1" d="M279.88,197.03c0,0,3.48,11.13,4.64,13.82l-0.07,2.68C284.45,213.52,280.02,199.71,279.88,197.03z"/>
		<path class="st1" d="M283.25,200.99c0.2,0.65-0.13,1.32-0.73,1.51c-0.6,0.18-1.25-0.19-1.45-0.84c-0.2-0.65,0.13-1.32,0.73-1.51
			C282.4,199.97,283.05,200.34,283.25,200.99z"/>
		<path class="st1" d="M285.01,205.79c0.2,0.65-0.13,1.32-0.73,1.51c-0.6,0.18-1.25-0.19-1.45-0.84c-0.2-0.65,0.13-1.32,0.73-1.51
			C284.17,204.77,284.81,205.14,285.01,205.79z"/>
	</g>
	<path class="st23" d="M267.5,161.14c-0.09-0.24-0.13-0.49-0.12-0.74l0.03-1.33c0-0.23-0.02-0.45-0.1-0.67
		c-0.07-0.19-0.15-0.48-0.18-0.83c0,0-5.42,3.95-8.86,4.11c2.9,4.63,5.27,5.43,5.27,5.43s0.99-0.2,0.1-1.22
		c-0.89-1.02-2.5-3.59-1.16-4.4c1.34-0.81,3.67,0.94,3.98,1.33c0.12,0.15,0.24,0.34,0.34,0.51c0.17,0.29,0.53,0.41,0.84,0.26
		l0.11-0.05c0.31-0.14,0.45-0.5,0.34-0.82L267.5,161.14z"/>
</g>
<g>
	<g>
		<path class="st1" d="M259.11,314.52c0,0,2.34,0.28,4.57,0.15c2.23-0.12,8.34,0.37,8.33,2.27c-0.01,1.9-2.93,4.86-6.8,5.6
			c-3.88,0.74-8.99,0.24-11.54,0.53c-2.55,0.28-4.54-1.74-3.76-3.92C250.68,316.97,259.11,314.52,259.11,314.52z"/>
		<path class="st1" d="M245.18,310.56c0,0-0.72,1.24-0.22,1.91c0.5,0.67,1.81,2.33,5.25,0.31c3.44-2.02,10.22-5.09,10.22-5.09
			s3.87-2.18,3.47-4.33c-0.41-2.15-4.12-1.5-4.12-1.5L245.18,310.56z"/>
		<path class="st3" d="M266.35,276.66c0,0-0.41,15.08-3.32,20.87c-2.9,5.79-2.93,15.7-3.45,17.61c-0.52,1.91-2.41,4.73-5.71,5.58
			c-3.31,0.85-4.06-1.01-4.02-2.18c0.04-1.17,0.78-3.12,0.66-4.38c-0.12-1.26-0.53-1.82-0.65-2.4c0,0-3.79,1.31-4.68-1.19
			c0,0,0.23-0.78,0.24-1.16c0.01-0.39-1.46-9.81-1.69-10.97c-0.23-1.16-0.22-7.59,0.54-10.88c0.76-3.28-0.37-10.13-0.37-10.13
			l11.55-2.48L266.35,276.66z"/>
		<path class="st1" d="M247.49,278.22c0,0,0.3,2.36,1.62,4.25c0,0,0.8,7.91,2.12,11.76c0,0-0.66,7.9-1.32,10.39
			c-0.66,2.49-0.04,7.13-0.04,7.13s-0.43,0.18-1.06,0.25c-0.63,0.08-1.7-9.19-0.89-10.93c0.81-1.75,0.77-9.29,0.15-11.57
			c-0.62-2.28-1.21-8.99-1.85-10.14c-0.63-1.15,0.44-1.89,0.44-1.89L247.49,278.22z"/>
		<path class="st1" d="M251.84,217.7c0,0,3.9,2.23,4.09,6.63l-2.76-0.32C253.18,224,253.55,219.08,251.84,217.7z"/>
		<path class="st1" d="M256.3,280.78c-7.68,0.88-12.16-1.78-12.16-1.78c-0.12-0.96-0.23-1.59-0.23-1.59l11.55-2.48l10.9,1.72
			c0,0-0.08,3.02-0.44,6.88c-1.86,0.34-4.06-3.58-4.06-3.58l-5.25,0.76C256.61,280.72,263.97,279.9,256.3,280.78z"/>
		<path class="st3" d="M264.88,277.02c0,0-16.17,7.51-25.57-3.31c-0.27-0.31-0.43-0.71-0.46-1.13l-0.22-2.76
			c-0.03-0.35-0.12-0.7-0.28-1.01l0,0c-0.35-0.68-0.5-1.44-0.43-2.2c0.28-3.18,1.03-11.98,1.17-14.45
			c0.17-3.04-2.96-15.11-6.56-20.28c-3.6-5.16,2.58-18.32,2.58-18.32s1.56-3.14,5.39-2.44c0,0-3.28,2.71-1.07,5.06
			c2.2,2.35,8.17,3.85,8.17,3.85s11.07,4.34,15.18,10.35c0,0,1.48,3.14,1.9,7.19c0.42,4.06,0.68,13.68,0.96,14.97
			c0.28,1.3,1.49,10.09,1.47,10.5C267.07,263.45,264.88,277.02,264.88,277.02z"/>
		<g>
			<path class="st1" d="M238.96,213.11c-0.37-0.69-0.36-1.39-0.15-2.03c0.51-0.06,1.06-0.08,1.69,0.04
				C240.49,211.12,239.48,211.96,238.96,213.11z"/>
			<path class="st1" d="M259.9,278.71c0,0-12.38-23.59-12.84-32.94c-0.46-9.35,16.59,16.87,16.59,16.87l1.24,14.38
				C264.88,277.02,261.79,278.33,259.9,278.71z"/>
		</g>
		<path class="st3" d="M262.88,249.11c-0.54-2.07-0.93-4.17-1.13-6.3c-0.35-3.73-2-9.91-9.2-8.17c-10.15,2.45-4.41,15.38-3.07,17.56
			c1.33,2.18,6.65,11.89,6.93,12.44c0.26,0.51,8.09,12.1,10.72,14.76c0.24,0.24,0.63,0.25,0.88,0.02c0.91-0.82,2.97-2.76,3.18-3.9
			c0.27-1.47-1.53-6.6-1.53-6.6s-4.89-13.14-5.27-13.75C264.11,254.69,263.76,252.44,262.88,249.11z"/>
		<path class="st17" d="M251.69,218.03c0,0,0.67-1.91,2.59-2.27c1.92-0.36,2.98-0.98,3.12-1.69c0.14-0.71,0.08-1.56,0.46-2.64
			c0.39-1.08,0.57-3.7,0.56-3.76c-0.01-0.06,1.44-0.63,1.46-1.28c0.02-0.65-0.94-2.88-0.87-3.07c0.07-0.19,0.76-1.67,0.56-2.77
			c-0.2-1.1-0.47-2.69-1.18-4.01c-0.71-1.32-5.66-9.39-16.31-4.05c-10.65,5.34-1.26,13.7-1.74,19.59c0,0-0.84,1.29,1.15,3.18
			C243.48,217.14,248.64,217.14,251.69,218.03z"/>
		<path class="st21" d="M241.5,215.25c-1.98-1.89-1.15-3.18-1.15-3.18c0.07-0.81-0.06-1.67-0.29-2.57l4.35,0.42
			c0,0,5.8-6.05,5.62-3.06c-0.18,3,1.4,3.37,1.4,3.37l-1.14,1.71c-0.29,0.44-0.05,0.9,0.26,1.33c2.06,2.82,6.31,1.55,6.32,1.55
			c-0.51,0.39-1.38,0.72-2.58,0.94c-1.92,0.36-2.59,2.27-2.59,2.27C248.64,217.14,243.48,217.14,241.5,215.25z"/>
		<g>
			<path class="st23" d="M258.62,193.32c0,0,0.95,2.17-0.22,3.22c-1.16,1.05-2.21,2.03-2.21,2.03l0.24,2.8
				c0.03,0.4-0.05,0.81-0.24,1.16l-1.35,2.48c-0.26,0.48-0.37,1.02-0.33,1.56l0.09,1.13c0.03,0.33-0.2,0.63-0.52,0.69l-0.4,0.08
				c-0.35,0.07-0.7-0.16-0.77-0.51l-0.31-1.55c0,0-0.92-1.19-2.57,0.47l-1.54,0.78c-0.43,0.22-0.74,0.6-0.87,1.07
				c-0.33,1.24-1.06,3.67-1.73,4.12c-0.91,0.61-4.82-0.93-5.4-1.71c-0.58-0.78-2.44-6.25-3.52-8.87c-1.08-2.62-1.35-9.38,6.7-11.84
				C251.72,187.95,257.29,190.96,258.62,193.32z"/>
			<path class="st19" d="M240.49,211.12c-0.58-0.78-2.44-6.25-3.52-8.87c0,0,3.36,1.78,7.48,2.03c4.13,0.25,11.8-4.97,11.8-4.97
				l0.18,2.05c0.03,0.4-0.05,0.81-0.24,1.16l-1.35,2.48c-0.26,0.48-0.37,1.02-0.33,1.56l0.09,1.13c0.03,0.33-0.2,0.63-0.52,0.69
				l-0.4,0.08c-0.35,0.07-0.7-0.16-0.77-0.51l-0.31-1.55c0,0-0.92-1.19-2.57,0.47l-2.22,1.13c0,0-1,4.23-1.91,4.84
				C244.99,213.45,241.08,211.91,240.49,211.12z"/>
		</g>
		<path class="st18" d="M240.36,211.4c0,0-2.92,2.14-1.08,4.63c1.83,2.49,13.46,6.14,14.07,6.77c0,0,0.09-3.91-1.51-5.1
			c0,0-8.74-0.86-10.3-2.87C239.99,212.82,240.36,211.4,240.36,211.4z"/>
		<path class="st20" d="M240.36,211.4c0,0-0.38,1.42,1.18,3.43c1.18,1.52,6.47,2.38,8.98,2.71l0,0c0,0-0.86,0.58-2.15,3.2
			c-3.61-1.41-8.02-3.26-9.09-4.72C237.45,213.53,240.36,211.4,240.36,211.4z"/>
		<path class="st1" d="M239.16,219.97c0,0,5.26,2.3,7.8,3.32c2.54,1.02,5.33,2.42,5.33,2.42l0.84-0.96l1.32,2.23
			c0,0,3.97,1.83,5.88,3.46c1.91,1.64,3.42,3.85,3.65,4.36c0,0-5.16-5.41-9.02-6.83l-1.04-0.39l-0.73-1.79l-0.83,1
			C252.36,226.78,240.86,221.46,239.16,219.97z"/>
	</g>
	<g>
		<path class="st3" d="M258.74,292.38L258.74,292.38L258.74,292.38c0.11-0.37,0.29-0.69,0.53-0.9l17.66-15.49
			c0.47-0.42,0.97-0.17,1.12,0.54l3.16,15.87c0.14,0.71-0.13,1.63-0.6,2.05l-14.53,12.74l0.88,4.28l-4.67-1.37l0-0.01
			c-0.21-0.09-0.39-0.33-0.46-0.7l-3.16-15.87C258.59,293.16,258.63,292.75,258.74,292.38z"/>
		<path class="st3" d="M282.17,277.16l-4.57-1.33l-0.15-0.04c-0.17-0.02-0.35,0.04-0.53,0.2l-17.66,15.49
			c-0.23,0.2-0.42,0.53-0.53,0.9l0.69,0.22l0,0l3.9,1.25l15.44-13.67l0,0L282.17,277.16z"/>
		<path class="st1" d="M285.23,295.8l-17.66,15.49c-0.47,0.42-0.97,0.17-1.12-0.54l-3.16-15.87c-0.14-0.71,0.13-1.63,0.6-2.05
			l17.66-15.49c0.47-0.42,0.97-0.17,1.12,0.54l3.16,15.87C285.97,294.47,285.7,295.38,285.23,295.8z"/>
		<path class="st1" d="M264.08,310.03l-3.16-15.87c-0.14-0.71,0.13-1.63,0.6-2.05l17.66-15.49c0.15-0.13,0.3-0.19,0.44-0.2
			c-0.18-0.05-0.39,0.01-0.6,0.19l-17.66,15.49c-0.47,0.42-0.74,1.33-0.6,2.05l3.16,15.87c0.1,0.49,0.35,0.78,0.67,0.76
			C264.34,310.71,264.16,310.44,264.08,310.03z"/>
		<g>
			<g>
				<path class="st1" d="M268.87,285.56l-1.01-0.34c-0.23-0.08-0.44-0.09-0.62-0.04l-0.08,0.02c-0.1,0.03-0.14,0.12-0.11,0.25
					l0.03,0.15l2.84,0.96l-0.03-0.15c-0.03-0.13-0.12-0.27-0.24-0.37l-0.1-0.08C269.33,285.78,269.1,285.64,268.87,285.56z"/>
				<polygon class="st1" points="268.68,287.66 269.92,286.57 267.08,285.26 265.85,286.33 				"/>
				<path class="st1" d="M267.63,286.65l-1.01-0.34c-0.23-0.08-0.44-0.09-0.62-0.04l-0.08,0.02c-0.1,0.03-0.14,0.12-0.11,0.25
					l0.03,0.15l2.84,0.96l-0.03-0.15c-0.03-0.13-0.12-0.27-0.24-0.37l-0.1-0.08C268.09,286.87,267.85,286.73,267.63,286.65z"/>
				<polygon class="st1" points="267.07,287.12 266.93,286.42 267.02,286.45 267.16,287.15 				"/>
				<polygon class="st1" points="266.94,286.42 268.22,285.34 268.29,285.37 267.02,286.45 				"/>
			</g>
			<g>
				<path class="st1" d="M274.5,280.63l-1.01-0.34c-0.23-0.08-0.44-0.09-0.62-0.04l-0.08,0.02c-0.1,0.03-0.14,0.12-0.11,0.25
					l0.03,0.15l2.84,0.96l-0.03-0.15c-0.03-0.13-0.12-0.27-0.24-0.37l-0.1-0.08C274.97,280.85,274.73,280.71,274.5,280.63z"/>
				<polygon class="st1" points="274.32,282.73 275.56,281.64 272.71,280.33 271.49,281.4 				"/>
				<path class="st1" d="M273.26,281.72l-1.01-0.34c-0.23-0.08-0.44-0.09-0.62-0.04l-0.08,0.02c-0.1,0.03-0.14,0.12-0.11,0.25
					l0.03,0.15l2.84,0.96l-0.03-0.15c-0.03-0.13-0.12-0.27-0.24-0.37l-0.1-0.08C273.73,281.94,273.49,281.8,273.26,281.72z"/>
				<polygon class="st1" points="272.71,282.18 272.57,281.49 272.66,281.51 272.8,282.21 				"/>
				<polygon class="st1" points="272.57,281.49 273.85,280.41 273.93,280.43 272.66,281.51 				"/>
			</g>
			<g>
				<path class="st1" d="M266.14,283.1l0.59,2.97l0.83-0.73l-0.57-2.89c-0.08-0.42,0.11-1,0.44-1.28l3.62-3.18
					c0.32-0.28,0.66-0.17,0.74,0.25l0.57,2.89l0.83-0.73l-0.59-2.97c-0.19-0.93-0.92-1.18-1.63-0.55l-3.87,3.39
					C266.39,280.9,265.96,282.16,266.14,283.1z"/>
				<path class="st1" d="M272.38,277.67l-1.59,0l-4.28,4.17l-0.01,2.32l0.24,1.91l1.05,0.36l-0.15-2.39l-0.07-1.65l0.85-1.27
					c0,0,1.62-1.37,1.63-1.41C270.06,279.67,272.38,277.67,272.38,277.67z"/>
				<polygon class="st1" points="273.41,281.49 272.36,281.13 271.94,279 272.92,278.99 273.21,279.01 				"/>
				<path class="st1" d="M273.06,276.93l-1.13-0.38c0,0,0.33,0.51,0.33,0.5c0,0,0.37,0.08,0.38,0.08
					C272.64,277.13,273.06,276.93,273.06,276.93z"/>
				<path class="st1" d="M267.19,283.45l0.59,2.97l0.83-0.73l-0.57-2.89c-0.08-0.42,0.11-1,0.44-1.28l3.62-3.18
					c0.32-0.28,0.66-0.17,0.74,0.25l0.57,2.89l0.83-0.73l-0.59-2.97c-0.19-0.93-0.92-1.18-1.63-0.55l-3.87,3.39
					C267.43,281.25,267,282.52,267.19,283.45z"/>
			</g>
		</g>
	</g>
	<path class="st17" d="M270.9,275.41c0,0,0.87,2.94,0.74,3.7c-0.13,0.76-1.63,2.34-2.57,2.69c-0.95,0.35-0.63-0.7-0.9-1.33
		c-0.27-0.62-0.34-2.02-0.34-2.02L270.9,275.41z"/>
	<path class="st21" d="M267.83,278.45l3.07-3.04c0,0,0.18,0.6,0.36,1.34c0,0-1.05,2.33-3.2,3.4
		C267.88,279.45,267.83,278.45,267.83,278.45z"/>
	<path class="st1" d="M271.16,275.61c0,0-0.93,3.33-3.8,3.88l0.72-3.61c0,0,2.42-0.84,2.49-0.85
		C270.64,275.01,271.16,275.61,271.16,275.61z"/>
</g>
<g class="st24">
	<polygon class="st13" points="394.4,149.92 404.89,155.97 404.89,154.81 394.4,148.75 	"/>
	<polygon class="st13" points="389.02,146.81 392.8,148.99 392.8,147.82 389.02,145.64 	"/>
	<polygon class="st13" points="384.86,144.41 387.42,145.89 387.42,144.72 384.86,143.24 	"/>
	<polygon class="st13" points="399.18,155.34 404.89,158.64 404.89,157.48 399.18,154.18 	"/>
	<polygon class="st13" points="390.57,150.38 397.58,154.42 397.58,153.25 390.57,149.21 	"/>
	<polygon class="st13" points="386.4,147.97 388.97,149.45 388.97,148.28 386.4,146.8 	"/>
	<polygon class="st13" points="382.44,145.68 385,147.16 385,145.99 382.44,144.51 	"/>
	<polygon class="st13" points="400.76,158.93 404.89,161.31 404.89,160.15 400.76,157.76 	"/>
	<polygon class="st13" points="397.74,157.19 399.16,158 399.16,156.83 397.74,156.02 	"/>
	<polygon class="st13" points="393.57,154.78 396.14,156.26 396.14,155.09 393.57,153.61 	"/>
	<polygon class="st13" points="389.63,155.17 404.89,163.98 404.89,162.82 389.63,154 	"/>
	<polygon class="st13" points="384.25,152.07 388.03,154.25 388.03,153.08 384.25,150.9 	"/>
	<polygon class="st13" points="400.76,164.27 404.89,166.65 404.89,165.49 400.76,163.1 	"/>
	<polygon class="st13" points="391.05,158.66 399.16,163.34 399.16,162.17 391.05,157.49 	"/>
	<polygon class="st13" points="386.88,156.26 389.45,157.74 389.45,156.57 386.88,155.09 	"/>
	<polygon class="st13" points="396.43,164.44 404.89,169.32 404.89,168.16 396.43,163.27 	"/>
	<polygon class="st13" points="388.71,159.98 394.83,163.51 394.83,162.35 388.71,158.81 	"/>
	<polygon class="st13" points="382.97,156.67 387.11,159.06 387.11,157.89 382.97,155.5 	"/>
	<polygon class="st13" points="402.04,170.34 404.89,171.99 404.89,170.83 402.04,169.18 	"/>
	<polygon class="st13" points="396.66,167.24 400.43,169.42 400.43,168.25 396.66,166.07 	"/>
	<polygon class="st13" points="388.97,162.8 395.05,166.31 395.05,165.14 388.97,161.63 	"/>
	<polygon class="st13" points="396.14,169.61 404.89,174.66 404.89,173.5 396.14,168.44 	"/>
	<polygon class="st13" points="386.34,163.95 394.54,168.69 394.54,167.52 386.34,162.78 	"/>
	<polygon class="st13" points="382.17,161.54 384.73,163.02 384.73,161.86 382.17,160.37 	"/>
	<polygon class="st13" points="378.17,159.23 380.73,160.71 380.73,159.55 378.17,158.06 	"/>
	<polygon class="st13" points="399.65,174.31 404.89,177.33 404.89,176.17 399.65,173.14 	"/>
	<polygon class="st13" points="373.13,137.63 365.85,133.43 365.85,132.27 373.13,136.46 	"/>
	<polygon class="st13" points="371.57,139.4 365.85,136.1 365.85,134.94 371.57,138.24 	"/>
	<polygon class="st13" points="369.99,141.16 365.85,138.77 365.85,137.61 369.99,139.99 	"/>
	<polygon class="st13" points="371.87,144.92 365.85,141.44 365.85,140.28 371.87,143.75 	"/>
	<polygon class="st13" points="369.99,146.5 365.85,144.11 365.85,142.95 369.99,145.33 	"/>
	<polygon class="st13" points="371.1,149.81 365.85,146.78 365.85,145.62 371.1,148.64 	"/>
	<polygon class="st13" points="368.71,151.1 365.85,149.45 365.85,148.29 368.71,149.94 	"/>
	<polygon class="st13" points="371.39,155.32 365.85,152.12 365.85,150.96 371.39,154.15 	"/>
	<polygon class="st13" points="371.1,157.82 365.85,154.79 365.85,153.63 371.1,156.65 	"/>
	<polygon class="st13" points="395.82,172.09 398.05,173.38 398.05,172.21 395.82,170.92 	"/>
	<polygon class="st13" points="389.19,168.27 394.21,171.17 394.21,170 389.19,167.1 	"/>
	<polygon class="st13" points="383.45,178.87 391.92,183.76 391.92,182.59 383.45,177.7 	"/>
	<polygon class="st13" points="377.65,175.52 380.98,177.45 380.98,176.28 377.65,174.35 	"/>
</g>
</svg>
